<?xml version="1.0" encoding="UTF-8"?>
<svg width="634px" height="100px" viewBox="0 0 634 100" version="1.1" xmlns="http://www.w3.org/2000/svg" xmlns:xlink="http://www.w3.org/1999/xlink">
    <title>wbez-chicago-logo-oneline</title>
    <g id="logo-(wide)" stroke="none" stroke-width="1" fill="none" fill-rule="evenodd">
        <g id="Artboard" transform="translate(-12.000000, -11.000000)" fill-rule="nonzero">
            <g id="wbez-chicago-logo-oneline" transform="translate(12.000000, 11.000000)">
                <g>
                    <g id="chicago" transform="translate(259.689922, 0.000000)" fill="#EC0101" fill-opacity="0.8">
                        <path d="M34.2599907,33.8268025 L34.2599907,26.2797599 C34.2599907,22.1487826 33.4370514,19.1609901 31.7928873,17.3180684 C30.1487232,15.4768328 28.2302461,14.556215 26.0374557,14.556215 C22.5639662,14.556215 20.1894435,15.4313078 18.9104587,17.1831793 C17.6314739,18.9350509 16.9919816,21.6547515 16.9919816,25.3355365 L16.9919816,74.6627774 C16.9919816,78.3486207 17.6314739,81.0649491 18.9104587,82.8168207 C20.1894435,84.5686926 22.5639662,85.4454711 26.0374557,85.4454711 C29.1423371,85.4454711 31.2888371,84.5922975 32.47867,82.8842653 C33.6650742,81.1796048 34.2599907,78.7532879 34.2599907,75.6070007 L34.2599907,63.8817698 L51.2519723,63.8817698 L51.2519723,75.0674445 C51.2519723,78.4835098 50.725634,81.7174749 49.6763865,84.7727116 C48.62371,87.8262628 47.0721265,90.478519 45.0164928,92.7227355 C42.9608591,94.968638 40.3343112,96.7458017 37.1368493,98.045795 C33.9393873,99.3474744 30.237875,100 26.0374557,100 C21.5592946,100 17.7000522,99.3474744 14.4580144,98.045795 C11.2142621,96.7458017 8.51742152,94.968638 6.37263601,92.7227355 C4.22442161,90.478519 2.6248334,87.8262628 1.57558582,84.7727116 C0.524623788,81.7174749 0,78.4835098 0,75.0674445 L0,24.9325555 C0,21.5181763 0.524623788,18.2842112 1.57558582,15.2289741 C2.6248334,12.1754232 4.22442161,9.52485331 6.37263601,7.27726445 C8.51742152,5.03304782 11.2142621,3.25757064 14.4580144,1.95251905 C17.7000522,0.652525798 21.5592946,0 26.0374557,0 C30.237875,0 33.9393873,0.719970325 37.1368493,2.15653874 C40.3343112,3.59310717 42.9608591,5.52539287 45.0164928,7.95170972 C47.0721265,10.3763405 48.62371,13.2073245 49.6763865,16.4412895 C50.725634,19.6769407 51.2519723,23.0913199 51.2519723,26.684427 L51.2519723,33.8268025 L34.2599907,33.8268025" id="Fill-9"></path>
                        <polyline id="Fill-10" points="60.3450641 98.3471074 60.3450641 1.65289256 77.070209 1.65289256 77.070209 41.0275945 94.8718919 41.0275945 94.8718919 1.65289256 111.597036 1.65289256 111.597036 98.3471074 94.8718919 98.3471074 94.8718919 55.4906765 77.070209 55.4906765 77.070209 98.3471074 60.3450641 98.3471074"></polyline>
                        <polygon id="Fill-11" points="122.343418 98.3471074 138.876312 98.3471074 138.876312 1.65289256 122.343418 1.65289256"></polygon>
                        <path d="M183.88097,33.8268025 L183.88097,26.2797599 C183.88097,22.1487826 183.059745,19.1609901 181.41558,17.3180684 C179.769702,15.4768328 177.852939,14.556215 175.660149,14.556215 C172.186659,14.556215 169.812137,15.4313078 168.533152,17.1831793 C167.254167,18.9350509 166.614675,21.6547515 166.614675,25.3355365 L166.614675,74.6627774 C166.614675,78.3486207 167.254167,81.0649491 168.533152,82.8168207 C169.812137,84.5686926 172.186659,85.4454711 175.660149,85.4454711 C178.763316,85.4454711 180.911531,84.5922975 182.101363,82.8842653 C183.286053,81.1796048 183.88097,78.7532879 183.88097,75.6070007 L183.88097,63.8817698 L200.874666,63.8817698 L200.874666,75.0674445 C200.874666,78.4835098 200.348328,81.7174749 199.297365,84.7727116 C198.246403,87.8262628 196.69482,90.478519 194.639186,92.7227355 C192.585267,94.968638 189.957004,96.7458017 186.759543,98.045795 C183.560366,99.3474744 179.860568,100 175.660149,100 C171.181988,100 167.321031,99.3474744 164.078993,98.045795 C160.835241,96.7458017 158.140115,94.968638 155.99533,92.7227355 C153.847115,90.478519 152.247527,87.8262628 151.198279,84.7727116 C150.147317,81.7174749 149.622693,78.4835098 149.622693,75.0674445 L149.622693,24.9325555 C149.622693,21.5181763 150.147317,18.2842112 151.198279,15.2289741 C152.247527,12.1754232 153.847115,9.52485331 155.99533,7.27726445 C158.140115,5.03304782 160.835241,3.25757064 164.078993,1.95251905 C167.321031,0.652525798 171.181988,0 175.660149,0 C179.860568,0 183.560366,0.719970325 186.759543,2.15653874 C189.957004,3.59310717 192.585267,5.52539287 194.639186,7.95170972 C196.69482,10.3763405 198.246403,13.2073245 199.297365,16.4412895 C200.348328,19.6769407 200.874666,23.0913199 200.874666,26.684427 L200.874666,33.8268025 L183.88097,33.8268025" id="Fill-12"></path>
                        <path d="M224.960087,62.4076647 L238.787598,62.4076647 L232.012256,20.478315 L231.735429,20.478315 L224.960087,62.4076647 Z M219.652281,98.3471074 L203.3546,98.3471074 L221.417637,1.65289256 L242.331748,1.65289256 L260.393085,98.3471074 L244.097103,98.3471074 L241.108402,76.918892 L222.639283,76.918892 L219.652281,98.3471074 L219.652281,98.3471074 Z" id="Fill-13"></path>
                        <path d="M285.479571,49.3255547 L313.298347,49.3255547 L313.298347,98.6527959 L305.077526,98.6527959 L301.92464,91.3738446 C299.364956,94.3397182 296.875565,96.5198628 294.456466,97.9125917 C292.033939,99.3036355 288.812475,100 284.793788,100 C278.033684,100 272.550851,97.7996223 268.350432,93.395495 C264.146584,88.9947397 262.046374,82.8842653 262.046374,75.0674445 L262.046374,24.9325555 C262.046374,21.5181763 262.572712,18.2842112 263.623675,15.2289741 C264.671208,12.1754232 266.22622,9.52485331 268.281854,7.27726445 C270.337488,5.03304782 272.917745,3.25757064 276.024341,1.95251905 C279.130937,0.652525798 282.784444,0 286.988292,0 C291.188711,0 294.888509,0.719970325 298.087686,2.15653874 C301.283434,3.59310717 303.956271,5.52539287 306.104486,7.95170972 C308.249271,10.3763405 309.848859,13.2073245 310.901536,16.4412895 C311.950784,19.6769407 312.475408,23.0913199 312.475408,26.684427 L312.475408,32.8825791 L296.306365,32.8825791 C296.306365,29.291158 296.122918,26.3033655 295.757739,23.9225737 C295.39256,21.5417819 294.797643,19.6550212 293.976418,18.2622917 C293.155193,16.8695623 292.126519,15.9034194 290.89211,15.3638632 C289.659416,14.824307 288.220986,14.556215 286.576822,14.556215 C284.473184,14.556215 282.691863,15.2964187 281.232861,16.7785121 C279.768715,18.2622917 279.038356,21.0696702 279.038356,25.2023336 L279.038356,75.2023336 C279.038356,78.3486207 279.633272,80.8423821 280.821391,82.6819314 C282.006081,84.5248537 284.061715,85.4454711 286.988292,85.4454711 C290.458353,85.4454711 292.879166,84.4135702 294.249017,82.3463951 C295.622297,80.2792203 296.306365,76.8210022 296.306365,71.9683685 L296.306365,62.5328792 L285.479571,62.5328792 L285.479571,49.3255547" id="Fill-14"></path>
                        <path d="M338.924333,74.6796473 C338.924333,78.3681379 339.566986,81.0864172 340.857475,82.8395471 C342.146238,84.5926769 344.538912,85.4700851 348.038955,85.4700851 C351.535542,85.4700851 353.928216,84.5926769 355.218706,82.8395471 C356.507468,81.0864172 357.151849,78.3681379 357.151849,74.6796473 L357.151849,25.3169781 C357.151849,21.6335493 356.507468,18.9118955 355.218706,17.1587656 C353.928216,15.4056358 351.535542,14.5299145 348.038955,14.5299145 C344.538912,14.5299145 342.146238,15.4056358 340.857475,17.1587656 C339.566986,18.9118955 338.924333,21.6335493 338.924333,25.3169781 L338.924333,74.6796473 Z M321.564794,24.9325555 C321.564794,21.5181763 322.089472,18.2842112 323.140544,15.2289741 C324.188186,12.1754232 325.787941,9.52485331 327.936379,7.27726445 C330.083101,5.03304782 332.780223,3.25757064 336.022598,1.95251905 C339.264974,0.652525798 343.126332,0 347.60496,0 C352.080158,0 355.939802,0.652525798 359.185606,1.95251905 C362.426267,3.25757064 365.123388,5.03304782 367.271826,7.27726445 C369.41855,9.52485331 371.014875,12.1754232 372.069376,15.2289741 C373.117018,18.2842112 373.643411,21.5181763 373.643411,24.9325555 L373.643411,75.0674445 C373.643411,78.4835098 373.117018,81.7174749 372.069376,84.7727116 C371.014875,87.8262628 369.41855,90.478519 367.271826,92.7227355 C365.123388,94.968638 362.426267,96.7458017 359.185606,98.045795 C355.939802,99.3474744 352.080158,100 347.60496,100 C343.126332,100 339.264974,99.3474744 336.022598,98.045795 C332.780223,96.7458017 330.083101,94.968638 327.936379,92.7227355 C325.787941,90.478519 324.188186,87.8262628 323.140544,84.7727116 C322.089472,81.7174749 321.564794,78.4835098 321.564794,75.0674445 L321.564794,24.9325555 L321.564794,24.9325555 Z" id="Fill-15"></path>
                    </g>
                    <g id="wbez" transform="translate(0.000000, 0.775194)" fill="#FFFFFF">
                        <path d="M0.0110148732,97.9369881 C-0.236814794,97.7718329 3.72845988,75.723624 8.76766312,49.0510716 L18.0199707,0.49546537 L24.9592014,0.247732685 L31.981042,5.86748865e-15 L37.185465,29.5627671 C43.2159869,63.9150327 43.4638166,65.3188512 44.1246957,63.6673 C44.3725254,63.0066795 47.0160418,49.2162267 49.9899978,33.1136022 C53.0465637,17.0109777 55.6900802,2.97279222 55.8552999,1.98186148 C56.2683494,0.165155123 56.6813988,0.0825775616 63.29019,0.0825775616 C67.1728548,0.0825775616 70.3120306,0.330310246 70.3120306,0.578042931 C70.3120306,0.908353178 74.0294756,22.2133641 78.5730195,47.9775633 C83.1165637,73.8243401 86.8340087,95.7073939 86.8340087,96.6157471 C86.8340087,98.2672983 86.3383494,98.3498759 79.3991184,98.3498759 C75.3512338,98.3498759 71.9642283,98.2672983 71.9642283,98.1021432 C71.9642283,98.0195656 69.8989811,84.394268 67.4206844,67.7961781 C64.9423878,51.1980882 62.8771405,37.1599027 62.7945306,36.4167047 C62.6293109,32.7007144 60.8118933,41.1236257 56.2683494,66.1446268 C53.5422231,81.3388982 51.0639264,94.8816183 50.8160967,96.1202817 L50.3204374,98.4324534 L43.6290364,98.1847207 L36.8550254,97.9369881 L31.4853826,67.2181351 C28.5114266,50.3723126 25.9505201,36.3341271 25.7026904,36.0863944 C25.4548607,35.8386617 23.2243937,47.647253 20.8287069,62.2634814 C18.4330202,76.8797099 16.0373334,91.0004729 15.6242839,93.6429549 L14.798185,98.3498759 L7.61112468,98.3498759 C3.64585,98.3498759 0.176234651,98.1847207 0.0110148732,97.9369881 Z" id="Path" transform="translate(43.417004, 49.216227) scale(-1, 1) rotate(-180.000000) translate(-43.417004, -49.216227) "></path>
                        <path d="M90.1384043,49.2162267 L90.1384043,0.0825775616 L107.734311,0.330310246 C124.091069,0.578042931 125.495437,0.743198054 129.625931,2.55990441 C134.912964,4.9546537 139.126069,9.66157471 141.108706,15.3594265 C143.256563,21.3875885 143.173953,36.5818598 141.026096,40.6281603 C139.126069,44.3441506 134.995574,48.7207613 132.021618,50.2071575 L129.708541,51.4458209 L133.095547,53.9231477 C135.408624,55.574699 137.308651,57.9694482 138.713019,61.1073956 C141.686975,67.4658678 141.852195,78.4486835 138.960849,84.8071558 C134.004255,95.872549 126.982415,98.4324534 101.538569,98.4324534 L90.1384043,98.4324534 L90.1384043,49.2162267 Z M119.051865,83.1556045 C126.321536,79.3570367 126.569365,63.9976102 119.547525,59.6209995 C117.564887,58.4649136 115.41703,57.9694482 111.699585,57.9694482 L106.660382,57.9694482 L106.660382,71.1818581 L106.660382,84.394268 L111.616975,84.394268 C114.508322,84.394268 117.730107,83.816225 119.051865,83.1556045 Z M122.273651,41.1236257 C125.743267,37.8205232 126.734585,34.1045329 126.321536,26.8377075 C125.660657,17.0935553 121.447552,13.1298323 112.030025,13.5427201 L107.073432,13.7904528 L106.825602,28.9847241 L106.660382,44.0964179 L113.186563,43.8486852 C119.134475,43.518375 120.043184,43.2706423 122.273651,41.1236257 Z" id="Shape" transform="translate(116.408647, 49.257515) scale(-1, 1) rotate(-180.000000) translate(-116.408647, -49.257515) "></path>
                        <polygon id="Path" transform="translate(173.574392, 49.216227) scale(-1, 1) rotate(-180.000000) translate(-173.574392, -49.216227) " points="150.443623 49.2162267 150.443623 0.0825775616 173.574392 0.0825775616 196.705161 0.0825775616 196.705161 7.1016703 196.705161 14.120763 181.835381 14.120763 166.965601 14.120763 166.965601 28.9847241 166.965601 43.8486852 177.704887 43.8486852 188.444172 43.8486852 188.444172 50.8677779 188.444172 57.8868707 177.704887 57.8868707 166.965601 57.8868707 166.965601 70.6863927 166.965601 83.4859148 181.009282 83.4859148 195.052964 83.4859148 195.052964 90.9178953 195.052964 98.3498759 172.748293 98.3498759 150.443623 98.3498759"></polygon>
                        <path d="M204.140051,90.9178953 L204.140051,83.4859148 L217.853293,83.4859148 C230.575216,83.4859148 231.566535,83.4033372 231.153485,82.0820962 C230.905655,81.2563206 224.049035,66.2272044 215.788046,48.6381838 L200.835656,16.5980899 L200.835656,8.34033372 L200.835656,0.0825775616 L224.792524,0.0825775616 L248.749391,0.0825775616 L248.749391,7.1016703 L248.749391,14.120763 L233.466562,14.120763 C223.305546,14.120763 218.183732,14.4510733 218.183732,15.0291162 C218.183732,15.442004 225.040353,30.8014305 233.466562,49.1336492 L248.749391,82.4124065 L248.749391,90.3398524 L248.749391,98.3498759 L226.444721,98.3498759 L204.140051,98.3498759 L204.140051,90.9178953 Z" id="Path" transform="translate(224.792524, 49.216227) scale(-1, 1) rotate(-180.000000) translate(-224.792524, -49.216227) "></path>
                    </g>
                </g>
            </g>
        </g>
    </g>
</svg>